<?xml version="1.0" encoding="iso-8859-1"?>

<svg version="1.1" id="Capa_1" xmlns="http://www.w3.org/2000/svg" xmlns:xlink="http://www.w3.org/1999/xlink" x="0px" y="0px"
	 viewBox="0 0 32 32" style="enable-background:new 0 0 32 32;" xml:space="preserve">
<g>
	<g id="sun_x5F_fill">
		<g>
			<path style="fill:white" d="M16.002,8c-4.422,0-8,3.582-8,8s3.578,8,8,8c4.414,0,8-3.582,8-8S20.416,8,16.002,8L16.002,8z"/>
			<path style="fill:white" d="M18.002,2c0,1.105-0.898,2-2,2c-1.109,0-2-0.895-2-2s0.891-2,2-2C17.104,0,18.002,0.895,18.002,2z
				"/>
			<circle style="fill:white" cx="6.002" cy="6" r="2"/>
			<path style="fill:white" d="M2.002,13.998c1.102,0,2,0.895,2,2c0,1.107-0.898,2-2,2c-1.109,0-2-0.893-2-2
				C0.002,14.893,0.893,13.998,2.002,13.998z"/>
			<circle style="fill:white" cx="6.002" cy="26" r="2"/>
			<path style="fill:white" d="M14.002,30c0-1.109,0.891-2,2-2c1.109,0,2,0.891,2,2c0,1.105-0.891,2-2,2S14.002,31.105,14.002,30
				z"/>
			<path style="fill:white" d="M24.596,27.414c-0.781-0.781-0.781-2.047,0-2.828s2.047-0.781,2.828,0
				c0.789,0.781,0.789,2.047,0,2.828C26.643,28.195,25.377,28.195,24.596,27.414z"/>
			<path style="fill:white" d="M29.998,17.998c-1.098,0-1.996-0.894-1.996-1.998c0-1.109,0.898-2,2.008-2
				c1.098,0,2,0.893,1.988,1.998C32.01,17.105,31.107,18,29.998,17.998z"/>
			<path style="fill:white" d="M27.424,7.416c-0.781,0.779-2.047,0.779-2.828,0c-0.781-0.785-0.781-2.047,0-2.83
				c0.781-0.779,2.047-0.781,2.828,0.002C28.213,5.369,28.213,6.637,27.424,7.416z"/>
		</g>
	</g>
</g>
<g>
</g>
<g>
</g>
<g>
</g>
<g>
</g>
<g>
</g>
<g>
</g>
<g>
</g>
<g>
</g>
<g>
</g>
<g>
</g>
<g>
</g>
<g>
</g>
<g>
</g>
<g>
</g>
<g>
</g>
</svg>
